PathFileType	4	(X/Y/Z)	C:/Users/opensim2020/Desktop/walking_exp_matlab/subject01/subject01_trc/subject01_walking16_run_cyclic.trc	
DataRate	CameraRate	NumFrames	NumMarkers	Units	OrigDataRate	OrigDataStartFrame	OrigNumFrames	
100.00	100.00	7	63	mm	100.00	408	54	
Frame#	Time	LKNE			RELB			LTHI			RUPA			LTIB			RFRM			LTOE			LSHO			RWRA			RSHO			RWRB			STRN			RFIN			RBHD			CLAV			LHEE			LFHD			RASI			RFHD			LBHD			C7			LWRB			LWRA			LFRM			RTHI			RKNE			LELB			LFIN			LUPA			RTIB			RANK			RTOE			RHEE			T10			RBAK			LASI			LPSI			RPSI			LANK			*39			*40			*41			*42			*43			*44			*45			*46			*47			*48			*49			*50			*51			*52			*53			*54			*55			*56			*57			*58			*59			*60			*61			*62			
		X1	Y1	Z1	X2	Y2	Z2	X3	Y3	Z3	X4	Y4	Z4	X5	Y5	Z5	X6	Y6	Z6	X7	Y7	Z7	X8	Y8	Z8	X9	Y9	Z9	X10	Y10	Z10	X11	Y11	Z11	X12	Y12	Z12	X13	Y13	Z13	X14	Y14	Z14	X15	Y15	Z15	X16	Y16	Z16	X17	Y17	Z17	X18	Y18	Z18	X19	Y19	Z19	X20	Y20	Z20	X21	Y21	Z21	X22	Y22	Z22	X23	Y23	Z23	X24	Y24	Z24	X25	Y25	Z25	X26	Y26	Z26	X27	Y27	Z27	X28	Y28	Z28	X29	Y29	Z29	X30	Y30	Z30	X31	Y31	Z31	X32	Y32	Z32	X33	Y33	Z33	X34	Y34	Z34	X35	Y35	Z35	X36	Y36	Z36	X37	Y37	Z37	X38	Y38	Z38	X39	Y39	Z39	X40	Y40	Z40	X41	Y41	Z41	X42	Y42	Z42	X43	Y43	Z43	X44	Y44	Z44	X45	Y45	Z45	X46	Y46	Z46	X47	Y47	Z47	X48	Y48	Z48	X49	Y49	Z49	X50	Y50	Z50	X51	Y51	Z51	X52	Y52	Z52	X53	Y53	Z53	X54	Y54	Z54	X55	Y55	Z55	X56	Y56	Z56	X57	Y57	Z57	X58	Y58	Z58	X59	Y59	Z59	X60	Y60	Z60	X61	Y61	Z61	X62	Y62	Z62	X63	Y63	Z63	

46	0.450	-615.15643	1085.59106	431.78870	-156.36009	820.04578	1056.82153	-632.94989	1059.26025	560.86835	-189.18237	862.90118	1175.30310	-620.96198	919.15094	378.17877	-164.94453	895.15582	949.96082	-568.96820	707.98346	172.47380	-600.10742	1024.17773	1342.60706	-226.56970	1010.64984	906.07947	-286.35910	987.97137	1328.12781	-188.79453	987.30670	868.08026	-441.17148	1096.57532	1151.01160	-204.06387	1061.07397	848.64032	-365.66641	949.67975	1567.35266	-433.58377	1062.52869	1308.22815	-518.73322	672.08423	358.37286	-505.46735	1030.12793	1619.06299	-351.52478	989.20105	891.17029	-395.01129	1053.39685	1634.29993	-483.07263	927.27344	1554.16992	-446.17911	920.99164	1384.78723	-662.04236	1064.06250	894.71655	-621.39575	1081.23303	935.83734	-718.33673	989.77985	974.76581	-304.91290	1024.88733	568.47992	-339.73248	1082.53369	416.41019	-758.21222	905.39557	1059.83081	-630.16791	1135.84888	877.72821	-712.46472	953.37860	1199.89343	-328.76379	978.39850	268.45596	-376.76016	867.94153	90.13925	-399.94141	994.87537	39.62232	-421.83279	801.77734	67.98830	-462.25589	848.70551	1100.98889	-382.30231	839.14655	1197.43286	-562.23071	998.61572	880.08356	-533.11139	816.93048	897.42719	-392.83438	806.88483	902.76691	-571.40613	709.95062	324.95508	-3101.98120	1973.24487	1023.46814	-3140.81763	2012.54199	1022.13055																									-416.69183	1029.16968	1662.87012																																							 
47	0.460	-616.13147	1162.38757	448.59802	-160.15141	885.01990	1049.95288	-635.32336	1126.48694	576.00330	-191.53067	919.79437	1170.55627	-622.57574	1001.24969	378.89865	-175.55309	967.47614	950.61060	-574.02979	808.40070	158.23586	-601.15302	1066.63330	1345.41577	-244.50291	1081.46399	915.60486	-288.00900	1038.13745	1330.51343	-206.74724	1063.32666	874.94623	-445.25952	1142.51746	1153.04773	-226.07106	1137.11230	861.23645	-365.55093	996.34784	1568.45544	-436.29678	1108.35535	1310.03516	-520.15479	753.61499	338.37988	-505.72092	1075.95593	1621.08154	-349.72086	1035.47595	892.38110	-395.04749	1099.77124	1635.69702	-482.98849	973.31104	1555.88977	-445.25967	965.98676	1386.38745	-682.43268	1082.58423	886.23920	-641.46741	1106.35779	924.12848	-730.36823	1014.06689	976.26953	-306.59317	1054.63196	560.85754	-338.46445	1100.44861	405.60785	-760.65784	934.41382	1070.44861	-657.91357	1155.16980	863.86469	-713.22986	988.82990	1205.61658	-329.78900	988.86188	263.76981	-376.49988	870.19000	94.31507	-399.90448	994.46283	39.44269	-421.41278	803.00372	75.71378	-461.29376	894.36566	1102.34583	-381.34534	886.57501	1198.75635	-563.95471	1044.97131	881.24304	-531.84766	863.23236	902.79639	-392.73337	854.52777	908.66833	-573.31335	795.17590	308.91272	-3101.81274	1973.18408	1023.55542	-3140.63159	2012.46545	1021.85815																									-416.05585	1076.41724	1664.70166																																							 
48	0.470	-618.33728	1235.69067	468.42282	-164.48888	948.22534	1046.35754	-637.15582	1191.78845	593.44946	-193.20148	976.06445	1169.21826	-624.12750	1082.48950	380.89413	-187.67592	1037.50220	954.51801	-578.31293	911.39594	144.99686	-602.91949	1108.15955	1349.13000	-262.54590	1149.49792	930.69147	-289.51947	1087.39990	1334.91724	-225.78465	1136.96692	887.96674	-449.90521	1188.24841	1156.29919	-248.25732	1210.27551	879.74719	-366.10925	1042.83032	1570.82825	-439.75125	1154.06384	1313.05029	-520.54266	837.60608	316.86993	-506.11786	1121.95593	1624.40771	-349.79218	1082.51257	893.05414	-395.62860	1146.09546	1638.18884	-483.44724	1019.34167	1558.93567	-445.14658	1009.75897	1388.26453	-702.04919	1102.50391	884.10864	-661.44135	1131.48755	918.53711	-741.83521	1038.25146	980.92438	-308.07535	1081.97046	554.82507	-337.71692	1116.61133	396.97632	-762.77820	963.97620	1082.44055	-682.77692	1174.82202	856.02289	-714.22266	1024.11450	1212.65808	-330.44287	1000.72900	262.78564	-376.24200	872.65936	100.24667	-399.96817	993.90497	39.18802	-420.73743	805.56946	85.59450	-460.34052	939.67023	1105.51147	-381.45517	934.32458	1200.43958	-565.74951	1091.39746	887.57849	-529.76495	909.95276	907.16412	-390.51755	902.58618	913.27679	-574.63422	882.14575	291.80624	-3101.97485	1973.24463	1023.36761	-3140.59448	2012.53113	1022.02197																									-416.27344	1124.11414	1667.29333																																							 
49	0.480	-619.07697	1305.92822	489.45340	-169.11736	1010.31915	1045.54846	-637.65588	1254.84290	611.99841	-193.93822	1032.23438	1170.55579	-625.67542	1161.61646	384.41104	-200.44965	1104.83716	961.26788	-581.84973	1015.50787	132.63281	-605.43262	1148.93433	1353.57007	-280.36884	1215.74854	949.86963	-291.09131	1136.41431	1340.86218	-245.89803	1207.33459	904.67639	-454.93448	1233.56738	1160.48877	-270.07315	1280.04199	902.88538	-367.08417	1089.25293	1574.50525	-443.73376	1199.58997	1317.23022	-520.75092	923.74750	294.54083	-507.19461	1168.12610	1628.72522	-349.52066	1130.14795	894.48572	-396.78284	1192.61133	1641.62842	-484.35226	1065.39819	1563.41748	-445.47754	1053.27942	1390.79614	-720.15002	1124.14526	887.24548	-679.95520	1157.07837	918.06494	-752.26410	1062.95776	988.54022	-308.52350	1108.42444	554.02130	-337.99606	1133.17822	393.23019	-765.00421	993.64026	1095.15515	-704.88837	1195.91968	853.68420	-715.23358	1059.12390	1221.00952	-330.95654	1013.08722	266.15793	-375.78857	876.69952	108.25387	-400.08661	993.77454	39.18465	-420.09964	809.55847	97.48380	-459.56036	985.84033	1109.22083	-381.19614	981.99603	1203.29199	-567.20142	1138.42273	894.67279	-527.58771	956.59143	911.58484	-387.67001	951.39050	916.71161	-575.72668	970.78046	274.81335	-3101.97437	1973.18579	1023.50873	-3140.73022	2012.53625	1022.06055																									-417.21786	1171.54150	1670.63257																																							 
50	0.490	-619.88177	1372.68445	510.93802	-173.69096	1071.60425	1047.01709	-637.18793	1315.81177	631.34705	-194.17070	1088.52893	1173.34802	-626.75208	1238.11914	389.58331	-213.15523	1170.23413	970.56372	-585.09790	1120.89722	122.24265	-608.47864	1189.41052	1358.87854	-297.04358	1278.69092	971.93988	-293.37643	1185.24768	1347.68921	-265.71140	1274.32764	924.39728	-460.17017	1278.87439	1165.57971	-291.36044	1346.06885	928.67609	-368.53668	1135.57300	1579.18933	-448.01663	1244.93103	1322.21558	-520.23633	1013.17596	271.31119	-508.36591	1214.34326	1633.51563	-349.67865	1180.38440	895.76697	-398.11624	1239.21326	1645.72437	-485.85318	1111.32166	1568.94067	-446.02783	1097.85730	1394.70825	-736.06653	1147.89429	894.50305	-696.51569	1183.79333	922.16199	-761.22809	1088.68066	998.52435	-308.91345	1136.23340	556.14807	-338.52457	1150.97400	395.00253	-767.14294	1023.14221	1107.84924	-724.22778	1218.81592	856.04779	-716.41516	1094.11694	1230.48621	-331.51749	1024.93579	271.73587	-374.39609	883.24390	118.31346	-400.35931	993.88708	39.18319	-418.90793	815.95374	111.97147	-458.67825	1033.03210	1113.05457	-379.64240	1030.24316	1207.36780	-568.08624	1185.89490	902.27643	-524.89099	1004.20190	915.81573	-384.64764	1000.72095	919.58459	-576.40222	1061.27588	258.00397	-3101.97583	1973.14294	1023.52808	-3140.62622	2012.54810	1022.16797																									-418.65417	1218.43103	1674.81555																																							 
51	0.500	-620.25543	1435.85205	531.74628	-178.17546	1132.15259	1050.01721	-636.29413	1373.84290	650.28418	-194.41151	1144.98254	1177.43604	-628.02942	1312.27832	395.37985	-225.51099	1233.45764	981.76154	-587.59766	1227.25378	113.15440	-611.71765	1229.85852	1364.47681	-312.09665	1338.53967	995.89484	-296.72910	1234.21350	1354.83777	-284.34796	1337.84192	946.08350	-465.40607	1324.55811	1171.37646	-312.10526	1408.74414	956.39960	-370.38522	1181.65259	1584.36121	-452.81827	1290.42664	1327.60046	-519.77289	1104.98889	247.71277	-509.89017	1260.60352	1638.71094	-353.42947	1230.51770	898.12903	-399.78406	1285.64783	1650.22607	-487.65671	1157.13220	1574.93799	-446.64679	1143.33191	1399.81604	-749.53497	1173.40906	904.46094	-710.94879	1211.75427	929.49158	-769.34259	1116.22583	1010.40033	-309.93506	1166.98816	561.13354	-339.06873	1170.25647	398.63696	-769.08630	1053.40198	1120.81824	-741.33551	1243.39209	862.25195	-717.89679	1129.36951	1240.79089	-330.91556	1037.96533	280.55017	-372.39511	892.50201	130.34538	-399.95282	995.06366	39.44280	-416.28531	826.14044	128.96704	-457.65417	1081.02258	1117.19604	-376.75159	1079.26025	1212.21667	-567.88153	1233.61169	910.09723	-522.27826	1052.23877	920.09546	-381.55200	1050.62122	922.57947	-576.82904	1153.24463	241.60472	-3102.02197	1973.07715	1023.45154	-3140.78979	2012.57751	1022.16162																									-420.35657	1264.86487	1679.81726																																							 
52	0.510	-620.26886	1494.92871	550.57184	-182.62660	1191.96973	1054.03418	-636.17395	1429.01111	667.47839	-195.06200	1201.72864	1182.72144	-629.26385	1384.17017	400.64569	-237.08170	1295.13904	994.62549	-589.34625	1334.44739	105.66847	-615.20148	1270.56030	1370.35876	-325.67871	1395.79688	1020.60211	-300.78235	1283.22388	1361.87219	-301.50677	1398.70325	969.18481	-470.79855	1370.49512	1177.61475	-331.88385	1468.30847	985.26031	-372.60757	1227.49707	1589.74414	-457.99942	1336.38806	1333.42493	-519.90863	1198.78650	225.54802	-511.79382	1306.68420	1644.32947	-355.69162	1280.99963	900.40826	-401.69949	1331.77393	1655.09595	-490.11264	1202.91663	1581.14453	-447.84082	1189.41333	1404.97900	-760.56567	1200.62219	916.10339	-723.41821	1241.40320	939.34650	-775.79657	1145.43701	1023.57623	-309.81970	1200.86987	567.62500	-338.96133	1191.68152	403.74738	-770.65515	1084.88110	1134.00610	-755.90747	1270.20764	871.25732	-719.33575	1165.07874	1251.63098	-329.63904	1054.64343	291.76648	-369.68417	905.28192	143.40569	-400.84927	995.70197	38.86251	-413.46191	841.01697	147.59604	-456.16815	1129.48315	1121.28992	-373.35031	1128.86243	1217.50134	-567.46674	1281.08594	916.80054	-519.96680	1100.71558	924.50916	-379.13052	1100.73621	926.07990	-577.59814	1246.56567	225.34218	-3101.96118	1973.09949	1023.54468	-3140.76050	2012.53418	1022.19910																									-422.23611	1311.04822	1685.14368																																							 
